<mxfile host="app.diagrams.net" agent="Mozilla/5.0 (Windows NT 10.0; Win64; x64) AppleWebKit/537.36 (KHTML, like Gecko) Chrome/131.0.0.0 Safari/537.36 Edg/131.0.0.0" version="26.2.5">
  <diagram name="Page-1" id="IBTZx50Kvss-hVOxCkij">
    <mxGraphModel dx="742" dy="1198" grid="0" gridSize="10" guides="1" tooltips="1" connect="1" arrows="1" fold="1" page="0" pageScale="1" pageWidth="827" pageHeight="1169" math="0" shadow="0">
      <root>
        <mxCell id="0" />
        <mxCell id="1" parent="0" />
        <mxCell id="44MyPO-igq-WciJjIL3j-24" value="Livre&lt;div&gt;&lt;br&gt;&lt;/div&gt;" style="swimlane;fontStyle=1;align=center;verticalAlign=top;childLayout=stackLayout;horizontal=1;startSize=26;horizontalStack=0;resizeParent=1;resizeParentMax=0;resizeLast=0;collapsible=1;marginBottom=0;whiteSpace=wrap;html=1;" vertex="1" parent="1">
          <mxGeometry x="38" y="-28" width="456" height="466" as="geometry" />
        </mxCell>
        <mxCell id="44MyPO-igq-WciJjIL3j-9" value="- disponible : boolean" style="text;strokeColor=none;fillColor=none;align=left;verticalAlign=top;spacingLeft=4;spacingRight=4;overflow=hidden;rotatable=0;points=[[0,0.5],[1,0.5]];portConstraint=eastwest;whiteSpace=wrap;html=1;" vertex="1" parent="44MyPO-igq-WciJjIL3j-24">
          <mxGeometry y="26" width="456" height="24" as="geometry" />
        </mxCell>
        <mxCell id="44MyPO-igq-WciJjIL3j-8" value="- prix : double" style="text;strokeColor=none;fillColor=none;align=left;verticalAlign=top;spacingLeft=4;spacingRight=4;overflow=hidden;rotatable=0;points=[[0,0.5],[1,0.5]];portConstraint=eastwest;whiteSpace=wrap;html=1;" vertex="1" parent="44MyPO-igq-WciJjIL3j-24">
          <mxGeometry y="50" width="456" height="24" as="geometry" />
        </mxCell>
        <mxCell id="44MyPO-igq-WciJjIL3j-7" value="- auteur : String" style="text;strokeColor=none;fillColor=none;align=left;verticalAlign=top;spacingLeft=4;spacingRight=4;overflow=hidden;rotatable=0;points=[[0,0.5],[1,0.5]];portConstraint=eastwest;whiteSpace=wrap;html=1;" vertex="1" parent="44MyPO-igq-WciJjIL3j-24">
          <mxGeometry y="74" width="456" height="26" as="geometry" />
        </mxCell>
        <mxCell id="44MyPO-igq-WciJjIL3j-6" value="- titre : String&lt;div&gt;&lt;br&gt;&lt;/div&gt;&lt;div&gt;&lt;br&gt;&lt;/div&gt;" style="text;strokeColor=none;fillColor=none;align=left;verticalAlign=top;spacingLeft=4;spacingRight=4;overflow=hidden;rotatable=0;points=[[0,0.5],[1,0.5]];portConstraint=eastwest;whiteSpace=wrap;html=1;" vertex="1" parent="44MyPO-igq-WciJjIL3j-24">
          <mxGeometry y="100" width="456" height="26" as="geometry" />
        </mxCell>
        <mxCell id="44MyPO-igq-WciJjIL3j-26" value="" style="line;strokeWidth=1;fillColor=none;align=left;verticalAlign=middle;spacingTop=-1;spacingLeft=3;spacingRight=3;rotatable=0;labelPosition=right;points=[];portConstraint=eastwest;strokeColor=inherit;" vertex="1" parent="44MyPO-igq-WciJjIL3j-24">
          <mxGeometry y="126" width="456" height="28" as="geometry" />
        </mxCell>
        <mxCell id="44MyPO-igq-WciJjIL3j-15" value="+ getTitre : String" style="text;strokeColor=none;fillColor=none;align=left;verticalAlign=top;spacingLeft=4;spacingRight=4;overflow=hidden;rotatable=0;points=[[0,0.5],[1,0.5]];portConstraint=eastwest;whiteSpace=wrap;html=1;" vertex="1" parent="44MyPO-igq-WciJjIL3j-24">
          <mxGeometry y="154" width="456" height="24" as="geometry" />
        </mxCell>
        <mxCell id="44MyPO-igq-WciJjIL3j-19" value="+setAuteur() : String" style="text;strokeColor=none;fillColor=none;align=left;verticalAlign=top;spacingLeft=4;spacingRight=4;overflow=hidden;rotatable=0;points=[[0,0.5],[1,0.5]];portConstraint=eastwest;whiteSpace=wrap;html=1;" vertex="1" parent="44MyPO-igq-WciJjIL3j-24">
          <mxGeometry y="178" width="456" height="24" as="geometry" />
        </mxCell>
        <mxCell id="44MyPO-igq-WciJjIL3j-21" value="+ setTitre(titre : String) : void" style="text;strokeColor=none;fillColor=none;align=left;verticalAlign=top;spacingLeft=4;spacingRight=4;overflow=hidden;rotatable=0;points=[[0,0.5],[1,0.5]];portConstraint=eastwest;whiteSpace=wrap;html=1;" vertex="1" parent="44MyPO-igq-WciJjIL3j-24">
          <mxGeometry y="202" width="456" height="24" as="geometry" />
        </mxCell>
        <mxCell id="44MyPO-igq-WciJjIL3j-20" value="+ getAuteur() : String" style="text;strokeColor=none;fillColor=none;align=left;verticalAlign=top;spacingLeft=4;spacingRight=4;overflow=hidden;rotatable=0;points=[[0,0.5],[1,0.5]];portConstraint=eastwest;whiteSpace=wrap;html=1;" vertex="1" parent="44MyPO-igq-WciJjIL3j-24">
          <mxGeometry y="226" width="456" height="24" as="geometry" />
        </mxCell>
        <mxCell id="44MyPO-igq-WciJjIL3j-31" value="+ setAuteur(auteur : String) : void" style="text;strokeColor=none;fillColor=none;align=left;verticalAlign=top;spacingLeft=4;spacingRight=4;overflow=hidden;rotatable=0;points=[[0,0.5],[1,0.5]];portConstraint=eastwest;whiteSpace=wrap;html=1;" vertex="1" parent="44MyPO-igq-WciJjIL3j-24">
          <mxGeometry y="250" width="456" height="24" as="geometry" />
        </mxCell>
        <mxCell id="44MyPO-igq-WciJjIL3j-30" value="+ getPrix() : double" style="text;strokeColor=none;fillColor=none;align=left;verticalAlign=top;spacingLeft=4;spacingRight=4;overflow=hidden;rotatable=0;points=[[0,0.5],[1,0.5]];portConstraint=eastwest;whiteSpace=wrap;html=1;" vertex="1" parent="44MyPO-igq-WciJjIL3j-24">
          <mxGeometry y="274" width="456" height="24" as="geometry" />
        </mxCell>
        <mxCell id="44MyPO-igq-WciJjIL3j-29" value="+ setPrix(prix : double) : void" style="text;strokeColor=none;fillColor=none;align=left;verticalAlign=top;spacingLeft=4;spacingRight=4;overflow=hidden;rotatable=0;points=[[0,0.5],[1,0.5]];portConstraint=eastwest;whiteSpace=wrap;html=1;" vertex="1" parent="44MyPO-igq-WciJjIL3j-24">
          <mxGeometry y="298" width="456" height="24" as="geometry" />
        </mxCell>
        <mxCell id="44MyPO-igq-WciJjIL3j-36" value="+ isDisponible() : boolean" style="text;strokeColor=none;fillColor=none;align=left;verticalAlign=top;spacingLeft=4;spacingRight=4;overflow=hidden;rotatable=0;points=[[0,0.5],[1,0.5]];portConstraint=eastwest;whiteSpace=wrap;html=1;" vertex="1" parent="44MyPO-igq-WciJjIL3j-24">
          <mxGeometry y="322" width="456" height="24" as="geometry" />
        </mxCell>
        <mxCell id="44MyPO-igq-WciJjIL3j-35" value="+ setDisponible(disponible : boolean) : void" style="text;strokeColor=none;fillColor=none;align=left;verticalAlign=top;spacingLeft=4;spacingRight=4;overflow=hidden;rotatable=0;points=[[0,0.5],[1,0.5]];portConstraint=eastwest;whiteSpace=wrap;html=1;" vertex="1" parent="44MyPO-igq-WciJjIL3j-24">
          <mxGeometry y="346" width="456" height="24" as="geometry" />
        </mxCell>
        <mxCell id="44MyPO-igq-WciJjIL3j-34" value="+ Livre(titre : String, auteur : String, prix : double, disponible : boolean ) : void" style="text;strokeColor=none;fillColor=none;align=left;verticalAlign=top;spacingLeft=4;spacingRight=4;overflow=hidden;rotatable=0;points=[[0,0.5],[1,0.5]];portConstraint=eastwest;whiteSpace=wrap;html=1;" vertex="1" parent="44MyPO-igq-WciJjIL3j-24">
          <mxGeometry y="370" width="456" height="24" as="geometry" />
        </mxCell>
        <mxCell id="44MyPO-igq-WciJjIL3j-33" value="+ afficherDetails() : void" style="text;strokeColor=none;fillColor=none;align=left;verticalAlign=top;spacingLeft=4;spacingRight=4;overflow=hidden;rotatable=0;points=[[0,0.5],[1,0.5]];portConstraint=eastwest;whiteSpace=wrap;html=1;" vertex="1" parent="44MyPO-igq-WciJjIL3j-24">
          <mxGeometry y="394" width="456" height="24" as="geometry" />
        </mxCell>
        <mxCell id="44MyPO-igq-WciJjIL3j-32" value="+ emprunter() : void" style="text;strokeColor=none;fillColor=none;align=left;verticalAlign=top;spacingLeft=4;spacingRight=4;overflow=hidden;rotatable=0;points=[[0,0.5],[1,0.5]];portConstraint=eastwest;whiteSpace=wrap;html=1;" vertex="1" parent="44MyPO-igq-WciJjIL3j-24">
          <mxGeometry y="418" width="456" height="24" as="geometry" />
        </mxCell>
        <mxCell id="44MyPO-igq-WciJjIL3j-37" value="+ retourner() : void" style="text;strokeColor=none;fillColor=none;align=left;verticalAlign=top;spacingLeft=4;spacingRight=4;overflow=hidden;rotatable=0;points=[[0,0.5],[1,0.5]];portConstraint=eastwest;whiteSpace=wrap;html=1;" vertex="1" parent="44MyPO-igq-WciJjIL3j-24">
          <mxGeometry y="442" width="456" height="24" as="geometry" />
        </mxCell>
        <mxCell id="44MyPO-igq-WciJjIL3j-39" value="Serie_3/&lt;span style=&quot;background-color: transparent; color: light-dark(rgb(0, 0, 0), rgb(255, 255, 255));&quot;&gt;Exo_3/Groupe&lt;/span&gt;" style="swimlane;fontStyle=1;align=center;verticalAlign=top;childLayout=stackLayout;horizontal=1;startSize=26;horizontalStack=0;resizeParent=1;resizeParentMax=0;resizeLast=0;collapsible=1;marginBottom=0;whiteSpace=wrap;html=1;" vertex="1" parent="1">
          <mxGeometry x="38" y="462" width="455" height="247" as="geometry" />
        </mxCell>
        <mxCell id="44MyPO-igq-WciJjIL3j-40" value="- nomCours : String" style="text;strokeColor=none;fillColor=none;align=left;verticalAlign=top;spacingLeft=4;spacingRight=4;overflow=hidden;rotatable=0;points=[[0,0.5],[1,0.5]];portConstraint=eastwest;whiteSpace=wrap;html=1;" vertex="1" parent="44MyPO-igq-WciJjIL3j-39">
          <mxGeometry y="26" width="455" height="26" as="geometry" />
        </mxCell>
        <mxCell id="44MyPO-igq-WciJjIL3j-44" value="&lt;pre style=&quot;box-sizing: border-box; font-family: var(--fontStack-monospace, ui-monospace, SFMono-Regular, SF Mono, Menlo, Consolas, Liberation Mono, monospace); font-size: 13.6px; margin-top: 0px; margin-bottom: 0px; overflow-wrap: normal; padding: var(--base-size-16); overflow: auto; line-height: 1.45; color: rgb(31, 35, 40); background-color: var(--bgColor-muted, var(--color-canvas-subtle)); border-radius: 6px; word-break: normal; min-height: 52px; font-style: normal; font-variant-ligatures: normal; font-variant-caps: normal; font-weight: 400; letter-spacing: normal; orphans: 2; text-align: start; text-indent: 0px; text-transform: none; widows: 2; word-spacing: 0px; -webkit-text-stroke-width: 0px; text-decoration-thickness: initial; text-decoration-style: initial; text-decoration-color: initial;&quot;&gt;&lt;span style=&quot;box-sizing: border-box; color: var(--color-prettylights-syntax-storage-modifier-import);&quot; class=&quot;pl-smi&quot;&gt;- &lt;/span&gt;&lt;span style=&quot;box-sizing: border-box;&quot; class=&quot;pl-s1&quot;&gt;etudiants : &lt;/span&gt;ArrayList&lt;span style=&quot;background-color: var(--bgColor-muted, var(--color-canvas-subtle)); color: light-dark(rgb(31, 35, 40), rgb(205, 208, 212)); font-family: var(--fontStack-monospace, ui-monospace, SFMono-Regular, SF Mono, Menlo, Consolas, Liberation Mono, monospace); font-size: 13.6px; white-space: normal;&quot;&gt;&amp;lt;&lt;/span&gt;&lt;span style=&quot;background-color: var(--bgColor-muted, var(--color-canvas-subtle)); color: var(--color-prettylights-syntax-storage-modifier-import); font-family: var(--fontStack-monospace, ui-monospace, SFMono-Regular, SF Mono, Menlo, Consolas, Liberation Mono, monospace); font-size: 13.6px; white-space: normal; box-sizing: border-box;&quot; class=&quot;pl-smi&quot;&gt;Etudiant&lt;/span&gt;&lt;span style=&quot;background-color: var(--bgColor-muted, var(--color-canvas-subtle)); color: light-dark(rgb(31, 35, 40), rgb(205, 208, 212)); font-family: var(--fontStack-monospace, ui-monospace, SFMono-Regular, SF Mono, Menlo, Consolas, Liberation Mono, monospace); font-size: 13.6px; white-space: normal;&quot;&gt;&amp;gt;&lt;/span&gt;&lt;/pre&gt;&lt;div&gt;&lt;br&gt;&lt;/div&gt;" style="text;strokeColor=none;fillColor=none;align=left;verticalAlign=top;spacingLeft=4;spacingRight=4;overflow=hidden;rotatable=0;points=[[0,0.5],[1,0.5]];portConstraint=eastwest;whiteSpace=wrap;html=1;" vertex="1" parent="44MyPO-igq-WciJjIL3j-39">
          <mxGeometry y="52" width="455" height="31" as="geometry" />
        </mxCell>
        <mxCell id="44MyPO-igq-WciJjIL3j-41" value="" style="line;strokeWidth=1;fillColor=none;align=left;verticalAlign=middle;spacingTop=-1;spacingLeft=3;spacingRight=3;rotatable=0;labelPosition=right;points=[];portConstraint=eastwest;strokeColor=inherit;" vertex="1" parent="44MyPO-igq-WciJjIL3j-39">
          <mxGeometry y="83" width="455" height="8" as="geometry" />
        </mxCell>
        <mxCell id="44MyPO-igq-WciJjIL3j-42" value="+ Groupe(nomCours : String, etudiants : ArrayList&amp;lt;Etudiant&amp;gt;) : void" style="text;strokeColor=none;fillColor=none;align=left;verticalAlign=top;spacingLeft=4;spacingRight=4;overflow=hidden;rotatable=0;points=[[0,0.5],[1,0.5]];portConstraint=eastwest;whiteSpace=wrap;html=1;" vertex="1" parent="44MyPO-igq-WciJjIL3j-39">
          <mxGeometry y="91" width="455" height="26" as="geometry" />
        </mxCell>
        <mxCell id="44MyPO-igq-WciJjIL3j-45" value="+ getEtudiant(index : int) : void" style="text;strokeColor=none;fillColor=none;align=left;verticalAlign=top;spacingLeft=4;spacingRight=4;overflow=hidden;rotatable=0;points=[[0,0.5],[1,0.5]];portConstraint=eastwest;whiteSpace=wrap;html=1;" vertex="1" parent="44MyPO-igq-WciJjIL3j-39">
          <mxGeometry y="117" width="455" height="26" as="geometry" />
        </mxCell>
        <mxCell id="44MyPO-igq-WciJjIL3j-49" value="+ nbEtudiant() : int" style="text;strokeColor=none;fillColor=none;align=left;verticalAlign=top;spacingLeft=4;spacingRight=4;overflow=hidden;rotatable=0;points=[[0,0.5],[1,0.5]];portConstraint=eastwest;whiteSpace=wrap;html=1;" vertex="1" parent="44MyPO-igq-WciJjIL3j-39">
          <mxGeometry y="143" width="455" height="26" as="geometry" />
        </mxCell>
        <mxCell id="44MyPO-igq-WciJjIL3j-48" value="+ afficheResultats() : void" style="text;strokeColor=none;fillColor=none;align=left;verticalAlign=top;spacingLeft=4;spacingRight=4;overflow=hidden;rotatable=0;points=[[0,0.5],[1,0.5]];portConstraint=eastwest;whiteSpace=wrap;html=1;" vertex="1" parent="44MyPO-igq-WciJjIL3j-39">
          <mxGeometry y="169" width="455" height="26" as="geometry" />
        </mxCell>
        <mxCell id="44MyPO-igq-WciJjIL3j-47" value="+ trierParNote() : void" style="text;strokeColor=none;fillColor=none;align=left;verticalAlign=top;spacingLeft=4;spacingRight=4;overflow=hidden;rotatable=0;points=[[0,0.5],[1,0.5]];portConstraint=eastwest;whiteSpace=wrap;html=1;" vertex="1" parent="44MyPO-igq-WciJjIL3j-39">
          <mxGeometry y="195" width="455" height="26" as="geometry" />
        </mxCell>
        <mxCell id="44MyPO-igq-WciJjIL3j-46" value="+ compare(etudiant1 : Etudiant, etudiant2 : Etudiant) : int" style="text;strokeColor=none;fillColor=none;align=left;verticalAlign=top;spacingLeft=4;spacingRight=4;overflow=hidden;rotatable=0;points=[[0,0.5],[1,0.5]];portConstraint=eastwest;whiteSpace=wrap;html=1;" vertex="1" parent="44MyPO-igq-WciJjIL3j-39">
          <mxGeometry y="221" width="455" height="26" as="geometry" />
        </mxCell>
        <mxCell id="44MyPO-igq-WciJjIL3j-51" value="Serie_3/Exo_3/Etudiant" style="swimlane;fontStyle=1;align=center;verticalAlign=top;childLayout=stackLayout;horizontal=1;startSize=26;horizontalStack=0;resizeParent=1;resizeParentMax=0;resizeLast=0;collapsible=1;marginBottom=0;whiteSpace=wrap;html=1;" vertex="1" parent="1">
          <mxGeometry x="606" y="462" width="457" height="424" as="geometry" />
        </mxCell>
        <mxCell id="44MyPO-igq-WciJjIL3j-52" value="- da : int" style="text;strokeColor=none;fillColor=none;align=left;verticalAlign=top;spacingLeft=4;spacingRight=4;overflow=hidden;rotatable=0;points=[[0,0.5],[1,0.5]];portConstraint=eastwest;whiteSpace=wrap;html=1;" vertex="1" parent="44MyPO-igq-WciJjIL3j-51">
          <mxGeometry y="26" width="457" height="26" as="geometry" />
        </mxCell>
        <mxCell id="44MyPO-igq-WciJjIL3j-57" value="- nomComplet : String" style="text;strokeColor=none;fillColor=none;align=left;verticalAlign=top;spacingLeft=4;spacingRight=4;overflow=hidden;rotatable=0;points=[[0,0.5],[1,0.5]];portConstraint=eastwest;whiteSpace=wrap;html=1;" vertex="1" parent="44MyPO-igq-WciJjIL3j-51">
          <mxGeometry y="52" width="457" height="26" as="geometry" />
        </mxCell>
        <mxCell id="44MyPO-igq-WciJjIL3j-56" value="- courriel : String" style="text;strokeColor=none;fillColor=none;align=left;verticalAlign=top;spacingLeft=4;spacingRight=4;overflow=hidden;rotatable=0;points=[[0,0.5],[1,0.5]];portConstraint=eastwest;whiteSpace=wrap;html=1;" vertex="1" parent="44MyPO-igq-WciJjIL3j-51">
          <mxGeometry y="78" width="457" height="26" as="geometry" />
        </mxCell>
        <mxCell id="44MyPO-igq-WciJjIL3j-55" value="- evaluations : Evaluation" style="text;strokeColor=none;fillColor=none;align=left;verticalAlign=top;spacingLeft=4;spacingRight=4;overflow=hidden;rotatable=0;points=[[0,0.5],[1,0.5]];portConstraint=eastwest;whiteSpace=wrap;html=1;" vertex="1" parent="44MyPO-igq-WciJjIL3j-51">
          <mxGeometry y="104" width="457" height="26" as="geometry" />
        </mxCell>
        <mxCell id="44MyPO-igq-WciJjIL3j-53" value="" style="line;strokeWidth=1;fillColor=none;align=left;verticalAlign=middle;spacingTop=-1;spacingLeft=3;spacingRight=3;rotatable=0;labelPosition=right;points=[];portConstraint=eastwest;strokeColor=inherit;" vertex="1" parent="44MyPO-igq-WciJjIL3j-51">
          <mxGeometry y="130" width="457" height="8" as="geometry" />
        </mxCell>
        <mxCell id="44MyPO-igq-WciJjIL3j-54" value="+ getDa() : int" style="text;strokeColor=none;fillColor=none;align=left;verticalAlign=top;spacingLeft=4;spacingRight=4;overflow=hidden;rotatable=0;points=[[0,0.5],[1,0.5]];portConstraint=eastwest;whiteSpace=wrap;html=1;" vertex="1" parent="44MyPO-igq-WciJjIL3j-51">
          <mxGeometry y="138" width="457" height="26" as="geometry" />
        </mxCell>
        <mxCell id="44MyPO-igq-WciJjIL3j-63" value="+ setDa(da : int) : void" style="text;strokeColor=none;fillColor=none;align=left;verticalAlign=top;spacingLeft=4;spacingRight=4;overflow=hidden;rotatable=0;points=[[0,0.5],[1,0.5]];portConstraint=eastwest;whiteSpace=wrap;html=1;" vertex="1" parent="44MyPO-igq-WciJjIL3j-51">
          <mxGeometry y="164" width="457" height="26" as="geometry" />
        </mxCell>
        <mxCell id="44MyPO-igq-WciJjIL3j-62" value="+ getNomComplet() : String" style="text;strokeColor=none;fillColor=none;align=left;verticalAlign=top;spacingLeft=4;spacingRight=4;overflow=hidden;rotatable=0;points=[[0,0.5],[1,0.5]];portConstraint=eastwest;whiteSpace=wrap;html=1;" vertex="1" parent="44MyPO-igq-WciJjIL3j-51">
          <mxGeometry y="190" width="457" height="26" as="geometry" />
        </mxCell>
        <mxCell id="44MyPO-igq-WciJjIL3j-61" value="+ setNomComplet(nomComplet : String) : void" style="text;strokeColor=none;fillColor=none;align=left;verticalAlign=top;spacingLeft=4;spacingRight=4;overflow=hidden;rotatable=0;points=[[0,0.5],[1,0.5]];portConstraint=eastwest;whiteSpace=wrap;html=1;" vertex="1" parent="44MyPO-igq-WciJjIL3j-51">
          <mxGeometry y="216" width="457" height="26" as="geometry" />
        </mxCell>
        <mxCell id="44MyPO-igq-WciJjIL3j-60" value="+ getCourriel() : String" style="text;strokeColor=none;fillColor=none;align=left;verticalAlign=top;spacingLeft=4;spacingRight=4;overflow=hidden;rotatable=0;points=[[0,0.5],[1,0.5]];portConstraint=eastwest;whiteSpace=wrap;html=1;" vertex="1" parent="44MyPO-igq-WciJjIL3j-51">
          <mxGeometry y="242" width="457" height="26" as="geometry" />
        </mxCell>
        <mxCell id="44MyPO-igq-WciJjIL3j-59" value="+ setCourriel(courriel : String) : void" style="text;strokeColor=none;fillColor=none;align=left;verticalAlign=top;spacingLeft=4;spacingRight=4;overflow=hidden;rotatable=0;points=[[0,0.5],[1,0.5]];portConstraint=eastwest;whiteSpace=wrap;html=1;" vertex="1" parent="44MyPO-igq-WciJjIL3j-51">
          <mxGeometry y="268" width="457" height="26" as="geometry" />
        </mxCell>
        <mxCell id="44MyPO-igq-WciJjIL3j-58" value="+ getEvaluation(index : int) : Evaluation" style="text;strokeColor=none;fillColor=none;align=left;verticalAlign=top;spacingLeft=4;spacingRight=4;overflow=hidden;rotatable=0;points=[[0,0.5],[1,0.5]];portConstraint=eastwest;whiteSpace=wrap;html=1;" vertex="1" parent="44MyPO-igq-WciJjIL3j-51">
          <mxGeometry y="294" width="457" height="26" as="geometry" />
        </mxCell>
        <mxCell id="44MyPO-igq-WciJjIL3j-66" value="+ getNbEvaluation() : int" style="text;strokeColor=none;fillColor=none;align=left;verticalAlign=top;spacingLeft=4;spacingRight=4;overflow=hidden;rotatable=0;points=[[0,0.5],[1,0.5]];portConstraint=eastwest;whiteSpace=wrap;html=1;" vertex="1" parent="44MyPO-igq-WciJjIL3j-51">
          <mxGeometry y="320" width="457" height="26" as="geometry" />
        </mxCell>
        <mxCell id="44MyPO-igq-WciJjIL3j-65" value="+ Etudiant(da : int, nomComplet: String) : void" style="text;strokeColor=none;fillColor=none;align=left;verticalAlign=top;spacingLeft=4;spacingRight=4;overflow=hidden;rotatable=0;points=[[0,0.5],[1,0.5]];portConstraint=eastwest;whiteSpace=wrap;html=1;" vertex="1" parent="44MyPO-igq-WciJjIL3j-51">
          <mxGeometry y="346" width="457" height="26" as="geometry" />
        </mxCell>
        <mxCell id="44MyPO-igq-WciJjIL3j-64" value="+ noteFinale() : byte" style="text;strokeColor=none;fillColor=none;align=left;verticalAlign=top;spacingLeft=4;spacingRight=4;overflow=hidden;rotatable=0;points=[[0,0.5],[1,0.5]];portConstraint=eastwest;whiteSpace=wrap;html=1;" vertex="1" parent="44MyPO-igq-WciJjIL3j-51">
          <mxGeometry y="372" width="457" height="26" as="geometry" />
        </mxCell>
        <mxCell id="44MyPO-igq-WciJjIL3j-67" value="+ afficheResultat() : void" style="text;strokeColor=none;fillColor=none;align=left;verticalAlign=top;spacingLeft=4;spacingRight=4;overflow=hidden;rotatable=0;points=[[0,0.5],[1,0.5]];portConstraint=eastwest;whiteSpace=wrap;html=1;" vertex="1" parent="44MyPO-igq-WciJjIL3j-51">
          <mxGeometry y="398" width="457" height="26" as="geometry" />
        </mxCell>
        <mxCell id="44MyPO-igq-WciJjIL3j-74" value="Serie_3/Exo_3/Evaluation" style="swimlane;fontStyle=1;align=center;verticalAlign=top;childLayout=stackLayout;horizontal=1;startSize=26;horizontalStack=0;resizeParent=1;resizeParentMax=0;resizeLast=0;collapsible=1;marginBottom=0;whiteSpace=wrap;html=1;" vertex="1" parent="1">
          <mxGeometry x="1176" y="462" width="430" height="138" as="geometry" />
        </mxCell>
        <mxCell id="44MyPO-igq-WciJjIL3j-75" value="- nom : String" style="text;strokeColor=none;fillColor=none;align=left;verticalAlign=top;spacingLeft=4;spacingRight=4;overflow=hidden;rotatable=0;points=[[0,0.5],[1,0.5]];portConstraint=eastwest;whiteSpace=wrap;html=1;" vertex="1" parent="44MyPO-igq-WciJjIL3j-74">
          <mxGeometry y="26" width="430" height="26" as="geometry" />
        </mxCell>
        <mxCell id="44MyPO-igq-WciJjIL3j-80" value="- ponderation : float" style="text;strokeColor=none;fillColor=none;align=left;verticalAlign=top;spacingLeft=4;spacingRight=4;overflow=hidden;rotatable=0;points=[[0,0.5],[1,0.5]];portConstraint=eastwest;whiteSpace=wrap;html=1;" vertex="1" parent="44MyPO-igq-WciJjIL3j-74">
          <mxGeometry y="52" width="430" height="26" as="geometry" />
        </mxCell>
        <mxCell id="44MyPO-igq-WciJjIL3j-78" value="- noteSur100 : byte" style="text;strokeColor=none;fillColor=none;align=left;verticalAlign=top;spacingLeft=4;spacingRight=4;overflow=hidden;rotatable=0;points=[[0,0.5],[1,0.5]];portConstraint=eastwest;whiteSpace=wrap;html=1;" vertex="1" parent="44MyPO-igq-WciJjIL3j-74">
          <mxGeometry y="78" width="430" height="26" as="geometry" />
        </mxCell>
        <mxCell id="44MyPO-igq-WciJjIL3j-76" value="" style="line;strokeWidth=1;fillColor=none;align=left;verticalAlign=middle;spacingTop=-1;spacingLeft=3;spacingRight=3;rotatable=0;labelPosition=right;points=[];portConstraint=eastwest;strokeColor=inherit;" vertex="1" parent="44MyPO-igq-WciJjIL3j-74">
          <mxGeometry y="104" width="430" height="8" as="geometry" />
        </mxCell>
        <mxCell id="44MyPO-igq-WciJjIL3j-77" value="+ method(type): type" style="text;strokeColor=none;fillColor=none;align=left;verticalAlign=top;spacingLeft=4;spacingRight=4;overflow=hidden;rotatable=0;points=[[0,0.5],[1,0.5]];portConstraint=eastwest;whiteSpace=wrap;html=1;" vertex="1" parent="44MyPO-igq-WciJjIL3j-74">
          <mxGeometry y="112" width="430" height="26" as="geometry" />
        </mxCell>
        <mxCell id="44MyPO-igq-WciJjIL3j-81" value="1" style="endArrow=open;html=1;endSize=12;startArrow=diamondThin;startSize=14;startFill=0;edgeStyle=orthogonalEdgeStyle;align=left;verticalAlign=bottom;rounded=0;fontSize=12;curved=1;exitX=1;exitY=0.5;exitDx=0;exitDy=0;" edge="1" parent="1" source="44MyPO-igq-WciJjIL3j-44" target="44MyPO-igq-WciJjIL3j-51">
          <mxGeometry x="-1" y="3" relative="1" as="geometry">
            <mxPoint x="352" y="787" as="sourcePoint" />
            <mxPoint x="512" y="787" as="targetPoint" />
            <Array as="points">
              <mxPoint x="550" y="530" />
              <mxPoint x="550" y="674" />
            </Array>
          </mxGeometry>
        </mxCell>
        <mxCell id="44MyPO-igq-WciJjIL3j-86" value="*&lt;div&gt;&lt;br&gt;&lt;/div&gt;" style="html=1;whiteSpace=wrap;" vertex="1" parent="1">
          <mxGeometry x="584" y="660" width="10" height="9" as="geometry" />
        </mxCell>
      </root>
    </mxGraphModel>
  </diagram>
</mxfile>
